<?xml version="1.0" encoding="UTF-8" standalone="no"?><svg width="126px" height="111px" viewBox="0 0 126 111" version="1.1" xmlns="http://www.w3.org/2000/svg" xmlns:xlink="http://www.w3.org/1999/xlink">        <title>logo</title>    <desc>Created with Sketch Beta.</desc>    <defs>        <path id="path-1" d="M0,109.958461 L125.870318,109.958461 L125.870318,0.187336637 L0,0.187336637 L0,109.958461 Z"></path>    </defs>    <g id="Documentation-Home" stroke="none" stroke-width="1" fill="none" fill-rule="evenodd">        <g id="Docs" transform="translate(-150.000000, -63.000000)">            <g id="Header">                <g id="logo" transform="translate(150.000000, 63.000000)">                    <path d="M47.8007182,66.0064757 L40.2124909,54.1016397 L47.0349,50.0991517 L51.4453091,49.7289582 L49.5585818,35.1659782 L25.7449909,52.6778812 L45.6157636,71.5455313" id="Fill-1" fill="#F7B895"></path>                    <path d="M40.5155864,53.7765292 L38.7339955,54.7946631 L46.40895,65.8544479 L46.4870864,63.0834947 L40.5155864,53.7765292 Z" id="Fill-2" fill="#CA9376"></path>                    <g id="Group-50" transform="translate(0.000000, 0.219917)">                        <path id="Fill-3" fill="#062F42" d="M16.3111734,82.8873826 C16.3150305,82.8867405 16.3195305,82.8854564 16.3240305,82.8848143 C16.2520305,82.8976557 16.1813162,82.9047184 16.1099591,82.9169177 C16.1768162,82.9060025 16.2436734,82.8989398 16.3111734,82.8873826 L16.3111734,82.8873826 Z"></path>                        <path id="Fill-5" fill="#062F42" d="M15.4291909,83.0519659 C15.4291909,83.0519659 15.4296,83.05325 15.4296,83.0538921 C15.6558273,83.0121577 15.8824636,82.9620766 16.1099182,82.9049327 C15.8824636,82.9620766 15.6554182,83.0108736 15.4291909,83.0519659"></path>                        <path id="Fill-7" fill="#062F42" d="M16.2595636,83.0084844 C16.6097455,82.9134586 16.9537909,82.7946763 17.2941545,82.6649789 C16.9492909,82.7966025 16.6007455,82.9153848 16.2460636,83.0116947 C16.2505636,83.0104106 16.2550636,83.0097685 16.2595636,83.0084844"></path>                        <path d="M46.0295182,21.837791 C46.0295182,10.731172 55.0737,1.72720307 66.2308364,1.72720307 C77.3871545,1.72720307 86.4317455,10.731172 86.4317455,21.837791 C86.4317455,32.9448173 77.3871545,41.948379 66.2308364,41.948379 C55.0737,41.948379 46.0295182,32.9448173 46.0295182,21.837791" id="Fill-9" fill="#FEFEFE"></path>                        <mask id="mask-2" fill="white">                            <use xlink:href="#path-1"></use>                        </mask>                        <g id="Clip-12"></g>                        <path d="M45.9323182,58.226263 L86.4323182,58.226263 L86.4323182,15.3681203 L45.9323182,15.3681203 L45.9323182,58.226263 Z" id="Fill-11" fill="#F7B895" mask="url(#mask-2)"></path>                        <path d="M84.9424909,37.6864705 L111.076036,41.5472342 L111.845536,46.1785217 L86.4319909,49.6442495 L82.4454,42.6655525" id="Fill-13" fill="#F7B895" mask="url(#mask-2)"></path>                        <path d="M110.731623,46.330468 L92.2443955,49.0663974 L90.4382591,45.1926016 L110.618305,45.1926016 L110.731623,46.330468 Z" id="Fill-14" fill="#CA9376" mask="url(#mask-2)"></path>                        <path d="M45.9322364,70.6402067 C45.1451455,77.887691 38.9817818,83.5293745 31.4929636,83.5293745 C28.0578273,83.5293745 24.9033273,82.3401941 22.4164636,80.3556476 C22.3841455,80.378861 22.3497818,80.3984092 22.3174636,80.4199936 C22.3195091,80.4232516 22.3223727,80.4256952 22.3248273,80.4289532 C21.7741909,80.8064772 21.1920545,81.1453122 20.5886455,81.4503451 C20.5681909,81.4605265 20.5485545,81.4711151 20.5281,81.4812964 C19.8850091,81.8030267 19.2149182,82.0828099 18.5186455,82.3141299 C18.4781455,82.327162 18.4372364,82.3397869 18.3967364,82.3532263 C18.1021909,82.4481163 17.8027364,82.5340468 17.4996,82.6118323 C17.4312818,82.6297514 17.3629636,82.6484851 17.2942364,82.6647752 C16.9538727,82.7474477 16.6098273,82.8227896 16.2596455,82.8830631 C16.2551455,82.8834704 16.2506455,82.8838776 16.2461455,82.8846922 C16.2432818,82.8850994 16.2404182,82.8859139 16.2379636,82.8863212 C16.1950091,82.8936517 16.1524636,82.8985388 16.1099182,82.9050548 C15.8824636,82.9413004 15.6558273,82.9730662 15.4296,82.9995377 C19.9435091,98.3399647 34.1819182,109.544732 51.0520091,109.544732 C71.5294636,109.544732 88.1328273,93.0358943 88.1676,72.6589626 L45.9322364,72.6589626 L45.9322364,70.6402067 Z" id="Fill-15" fill="#103A5D" mask="url(#mask-2)"></path>                        <path id="Fill-16" fill="#062F42" mask="url(#mask-2)" d="M18.5879922,82.3141299 C18.5243494,82.334676 18.4600636,82.353938 18.3970636,82.3757683 C18.4600636,82.353938 18.5243494,82.334676 18.5879922,82.3141299"></path>                        <path id="Fill-17" fill="#062F42" mask="url(#mask-2)" d="M20.6233656,81.4503044 C20.5912227,81.4663561 20.5603656,81.4836919 20.5282227,81.4991014 C20.5597227,81.4830498 20.5912227,81.4663561 20.6233656,81.4503044"></path>                        <path d="M22.3174227,80.4198307 C22.3497409,80.3982463 22.3845136,80.3786981 22.4164227,80.3558919 C22.1300591,80.1270154 21.8522864,79.8879576 21.5843318,79.6391256 C21.8486045,79.9022114 22.09365,80.1640755 22.3174227,80.4198307" id="Fill-18" fill="#062F42" mask="url(#mask-2)"></path>                        <path id="Fill-19" fill="#062F42" mask="url(#mask-2)" d="M17.6165532,82.6119952 C17.5091961,82.639604 17.4024818,82.6697811 17.2944818,82.6954638 C17.4024818,82.6697811 17.5091961,82.6402461 17.6165532,82.6119952"></path>                        <path d="M18.1895727,75.1684997 C17.7498,75.5590559 17.3276182,75.9671239 16.9287545,76.3943329 C18.8040273,77.370927 20.2869818,78.4688825 21.4749818,79.5643946 C21.6672545,79.7419572 21.8501182,79.9178907 22.0276636,80.095046 C22.3868455,80.4285867 22.7587091,80.748688 23.1424364,81.0549426 C27.1842545,78.231861 30.0883909,74.0228955 31.2768,69.2417387 C27.5667545,69.6583591 22.1422091,71.6604176 18.1895727,75.1684997" id="Fill-20" fill="#103A5D" mask="url(#mask-2)"></path>                        <path id="Fill-21" fill="#062F42" mask="url(#mask-2)" d="M18.3969,82.3531041 C18.1023545,82.5027056 17.8024909,82.6375395 17.4993545,82.7614583 C17.8029,82.6381816 18.1019455,82.5027056 18.3969,82.3531041"></path>                        <path d="M20.5280591,81.4813371 C19.8853773,81.8030674 19.2148773,82.0824434 18.5186045,82.3141706 C19.2148773,82.0828506 19.8849682,81.8030674 20.5280591,81.4813371" id="Fill-22" fill="#062F42" mask="url(#mask-2)"></path>                        <path d="M22.3248273,80.4289939 C22.3223727,80.4257359 22.3195091,80.4232924 22.3174636,80.4200343 C21.7672364,80.7979656 21.1916455,81.1449457 20.5886455,81.4503858 C21.1920545,81.1453529 21.7741909,80.806518 22.3248273,80.4289939" id="Fill-23" fill="#062F42" mask="url(#mask-2)"></path>                        <path d="M21.5841273,79.6391256 C21.4446273,79.5092118 21.3059455,79.3776689 21.1717636,79.2428679 C20.2848545,78.42551 19.1778545,77.6057086 17.7779455,76.8767248 C16.7134909,76.3220454 15.4788545,75.8223453 14.0421273,75.4167208 C10.6397182,74.4551951 6.10494545,74.0288006 8.18181818e-05,74.6950674 C2.74712727,80.1657045 8.63844545,83.5841909 14.9601273,83.0437654 L14.9601273,83.0462089 C15.0505364,83.0384711 15.1413545,83.0274753 15.2321727,83.0181084 C15.2980364,83.0107779 15.3634909,83.0071126 15.4297636,82.9993748 C15.4297636,82.9989675 15.4293545,82.998153 15.4293545,82.998153 C15.6555818,82.972496 15.8826273,82.9411375 16.1100818,82.9052992 C16.1550818,82.8975614 16.2004909,82.8926743 16.2463091,82.8849365 C16.6009909,82.8238485 16.9495364,82.7485066 17.2944,82.6650196 C17.3631273,82.6487294 17.4310364,82.6295885 17.4993545,82.6120766 C17.8024909,82.5334767 18.1023545,82.4483607 18.3969,82.3530634 C18.4374,82.339624 18.4783091,82.3274064 18.5184,82.313967 C19.2146727,82.0822397 19.8855818,81.8032711 20.5282636,81.4811335 C20.5487182,81.4713594 20.5683545,81.4607708 20.5888091,81.4501822 C21.1918091,81.1447421 21.7669909,80.7981693 22.3172182,80.4198307 C22.0938545,80.1640755 21.8484,79.9022114 21.5841273,79.6391256" id="Fill-24" fill="#103A5D" mask="url(#mask-2)"></path>                        <path d="M21.6717636,79.7428679 C21.5110494,79.5763726 21.3458708,79.4103911 21.1717636,79.2428679 C21.334462,79.4129604 21.5026168,79.5789419 21.6717636,79.7428679" id="Fill-25" fill="#062F42" mask="url(#mask-2)"></path>                        <path d="M45.9323182,73.0669899 L88.1685,73.0669899 L88.1685,41.9483383 L45.9323182,41.9483383 L45.9323182,73.0669899 Z" id="Fill-26" fill="#103A5D" mask="url(#mask-2)"></path>                        <path d="M79.9767,24.6489809 C79.9767,25.9122814 79.5001091,26.9365241 78.9114273,26.9365241 C78.3227455,26.9365241 77.8461545,25.9122814 77.8461545,24.6489809 C77.8461545,23.3856804 78.3227455,22.3618449 78.9114273,22.3618449 C79.5001091,22.3618449 79.9767,23.3856804 79.9767,24.6489809" id="Fill-27" fill="#062F42" mask="url(#mask-2)"></path>                        <path d="M45.1328318,45.3393757 L69.6050591,34.8171656 L86.4317864,40.1240867 L90.5472409,42.5757531 C95.46615,47.4041513 98.5155136,54.1156899 98.5155136,61.536257 C98.5155136,70.8517749 93.7099227,79.0493818 86.4317864,83.8073251 C86.4317864,59.73416 45.1328318,71.3824263 45.1328318,45.3393757" id="Fill-28" fill="#FEFEFE" mask="url(#mask-2)"></path>                        <path d="M71.8597636,11.9412038 C75.9032182,15.5588371 78.8049,18.379068 86.4319909,23.1137979 L86.4319909,11.9412038 L71.8597636,11.9412038 Z" id="Fill-29" fill="#CA9376" mask="url(#mask-2)"></path>                        <path d="M74.2370318,11.9412038 C77.6210318,15.4688341 80.0493955,18.2182029 86.4320318,22.8356437 L86.4320318,11.9412038 L74.2370318,11.9412038 Z" id="Fill-30" fill="#FEFEFE" mask="url(#mask-2)"></path>                        <path d="M79.6059409,11.9412038 C67.8372136,22.8116157 57.9130773,27.0091782 45.9324409,30.907002 L45.9324409,11.9412038 L79.6059409,11.9412038 Z" id="Fill-31" fill="#CA9376" mask="url(#mask-2)"></path>                        <path d="M80.0493955,11.9412038 C68.1260318,21.4004822 58.0705773,25.0531393 45.9324409,28.444747 L45.9324409,11.9412038 L80.0493955,11.9412038 Z" id="Fill-32" fill="#FEFEFE" mask="url(#mask-2)"></path>                        <path d="M46.0295182,14.7537783 L86.4317455,11.9412852 L46.0295182,11.9412852 L46.0295182,14.7537783 Z" id="Fill-33" fill="#2B2B2B" mask="url(#mask-2)"></path>                        <path d="M37.94265,94.77279 C37.6710136,95.7070297 36.8053773,96.3899939 35.7797864,96.3899939 C34.7599227,96.3899939 33.8983773,95.7147675 33.6214227,94.7890802" id="Stroke-34" stroke="#144A6F" mask="url(#mask-2)"></path>                        <path d="M35.7792955,92.6517728 C35.7792955,93.8902309 34.7721136,94.8937036 33.5284773,94.8937036 C32.28525,94.8937036 31.2768409,93.8902309 31.2768409,92.6517728" id="Stroke-35" stroke="#144A6F" mask="url(#mask-2)"></path>                        <path d="M40.2826909,92.6517728 C40.2826909,93.8902309 39.2742818,94.8937036 38.0310545,94.8937036 C36.7874182,94.8937036 35.7794182,93.8902309 35.7794182,92.6517728" id="Stroke-36" stroke="#144A6F" mask="url(#mask-2)"></path>                        <path d="M122.482595,8.60103225 C122.482595,8.60103225 122.410595,18.4533103 122.409368,18.6707837 C122.401186,20.8288203 120.742732,22.3519486 119.754368,23.0674931 C118.231323,24.1711503 116.29305,24.8732554 114.178459,25.1204583 L114.23205,5.86103031 L110.845186,13.9926621 L110.791595,25.1241236 C106.124277,24.5702588 102.448186,21.7834227 102.461686,18.563676 C102.461686,18.4068834 102.534914,0.187173735 102.534914,0.187173735 L99.14805,8.314733 C99.14805,8.314733 99.0744136,18.3930368 99.0740045,18.5482004 C99.0527318,23.9927732 104.078823,28.367491 110.780959,29.0093226 L110.556368,109.943229 L113.943232,109.958298 L114.167823,29.0023992 C116.938595,28.7340192 119.520777,27.8172914 121.569095,26.3328522 C124.283414,24.3662247 125.785186,21.650658 125.79705,18.6935899 C125.798277,18.5363901 125.870277,0.473472987 125.870277,0.473472987 L122.482595,8.60103225 Z" id="Fill-37" fill="#103A5D" mask="url(#mask-2)"></path>                        <path d="M116.174823,36.2071627 L120.479686,35.3926556 L120.479686,38.8074766 L116.993005,38.8074766 L116.174823,36.2071627 Z" id="Fill-38" fill="#F7B895" mask="url(#mask-2)"></path>                        <path d="M121.429882,38.8073952 L111.845291,38.8073952 L112.752245,50.1946119 L119.735427,51.577645 L121.429882,38.8073952 Z" id="Fill-39" fill="#F7B895" mask="url(#mask-2)"></path>                        <path d="M119.735223,51.5776043 L112.75245,50.1945712 L120.479359,48.1485293 L119.735223,51.5776043 Z" id="Fill-40" fill="#CA9376" mask="url(#mask-2)"></path>                        <path d="M90.4380545,42.5790518 C86.0976,35.0530061 76.2033273,29.7921046 64.6861909,29.7921046 C63.8892818,29.7921046 63.1013727,29.8234631 62.3208273,29.8727408 C65.3391,39.511618 81.7596,42.9586122 90.4380545,42.5790518" id="Fill-41" fill="#B9DCDE" mask="url(#mask-2)"></path>                        <path d="M78.5277,31.0379747 C75.1531091,29.4610889 71.4160636,28.6119653 67.4949273,28.6905652 C55.6435636,28.927994 45.8004273,37.5027177 42.7747909,49.0666825 C66.4157455,47.0560717 74.8737,37.7837226 78.5277,31.0379747" id="Fill-42" fill="#B9DCDE" mask="url(#mask-2)"></path>                        <path d="M78.6822955,30.8431039 C75.3396136,29.3073507 71.6205682,28.4447877 67.6986136,28.4447877 C55.8447955,28.4447877 45.8306591,36.2677213 42.5714318,47.0090339 C66.2479773,45.5742796 74.8920682,37.0740833 78.6822955,30.8431039" id="Fill-43" fill="#FEFEFE" mask="url(#mask-2)"></path>                        <path d="M90.4380545,42.5760789 C86.7807818,34.2587395 78.4443273,28.4447877 68.7398727,28.4447877 C68.0677364,28.4447877 67.4041909,28.4794042 66.7467818,28.5339762 C69.2901,39.1861003 83.1255545,42.9955501 90.4380545,42.5760789" id="Fill-44" fill="#FEFEFE" mask="url(#mask-2)"></path>                        <path d="M80.0498045,5.02664922 L80.0498045,10.411763 L74.2374409,10.411763 L74.2374409,5.02664922 L62.4576682,5.02664922 L62.4576682,10.411763 L56.6457136,10.411763 L56.6457136,5.02664922 L45.9324409,5.02664922 L45.9324409,16.8288573 L86.4324409,16.8288573 L86.4324409,5.02664922 L80.0498045,5.02664922 Z" id="Fill-45" fill="#103A5D" mask="url(#mask-2)"></path>                        <path d="M64.5029182,24.6489809 C64.5029182,25.9986192 63.9936,27.0925022 63.3652364,27.0925022 C62.7364636,27.0925022 62.2271455,25.9986192 62.2271455,24.6489809 C62.2271455,23.2997498 62.7364636,22.2054595 63.3652364,22.2054595 C63.9936,22.2054595 64.5029182,23.2997498 64.5029182,24.6489809" id="Fill-46" fill="#062F42" mask="url(#mask-2)"></path>                        <path d="M62.5712727,75.9534809 C62.3920909,76.5700628 61.8205909,77.0208925 61.1435455,77.0208925 C60.4701818,77.0208925 59.9015455,76.5753571 59.7186818,75.9640695" id="Stroke-47" stroke="#144A6F" stroke-width="0.75" mask="url(#mask-2)"></path>                        <path d="M61.1430545,74.5532618 C61.1430545,75.3710269 60.4778727,76.0332212 59.6572364,76.0332212 C58.8361909,76.0332212 58.1706,75.3710269 58.1706,74.5532618" id="Stroke-48" stroke="#144A6F" stroke-width="0.75" mask="url(#mask-2)"></path>                        <path d="M64.1160409,74.5532618 C64.1160409,75.3710269 63.4500409,76.0332212 62.6298136,76.0332212 C61.8087682,76.0332212 61.1431773,75.3710269 61.1431773,74.5532618" id="Stroke-49" stroke="#144A6F" stroke-width="0.75" mask="url(#mask-2)"></path>                    </g>                </g>            </g>        </g>    </g></svg>